<svg width="25" height="25" viewBox="0 0 25 25" fill="none" xmlns="http://www.w3.org/2000/svg">
<path d="M17.2719 8.55088V6.54409C17.2719 5.91876 17.1488 5.29954 16.9095 4.7218C16.6701 4.14407 16.3194 3.61912 15.8772 3.17694C15.435 2.73476 14.9101 2.38401 14.3323 2.1447C13.7546 1.9054 13.1354 1.78223 12.5101 1.78223C11.8847 1.78223 11.2655 1.9054 10.6878 2.1447C10.11 2.38401 9.58509 2.73476 9.14291 3.17694C8.70073 3.61912 8.34998 4.14407 8.11067 4.7218C7.87136 5.29954 7.74819 5.91876 7.74819 6.54409V11.306C7.74819 11.4864 7.81987 11.6594 7.94744 11.787C8.07501 11.9146 8.24804 11.9862 8.42846 11.9862C8.60888 11.9862 8.78191 11.9146 8.90948 11.787C9.03706 11.6594 9.10873 11.4864 9.10873 11.306V9.91141H14.5509V8.55088H9.10873V6.54409C9.10873 5.642 9.46708 4.77686 10.105 4.13899C10.7428 3.50111 11.608 3.14276 12.5101 3.14276C13.4121 3.14276 14.2773 3.50111 14.9152 4.13899C15.553 4.77686 15.9114 5.642 15.9114 6.54409V11.2719C15.9114 11.4524 15.9831 11.6254 16.1106 11.753C16.2382 11.8805 16.4112 11.9522 16.5917 11.9522C16.7721 11.9522 16.9451 11.8805 17.0727 11.753C17.2003 11.6254 17.2719 11.4524 17.2719 11.2719V9.91141H20.6733V22.1562H4.34686V9.91141H6.38766V8.55088H2.98633V22.2174C2.98633 22.562 3.12322 22.8925 3.36689 23.1362C3.61055 23.3799 3.94104 23.5167 4.28564 23.5167H20.7345C21.0791 23.5167 21.4096 23.3799 21.6532 23.1362C21.8969 22.8925 22.0338 22.562 22.0338 22.2174V8.55088H17.2719Z" fill="#292D32"/>
</svg>
