<svg width="46" height="46" viewBox="0 0 46 46" fill="none" xmlns="http://www.w3.org/2000/svg">
<circle cx="23" cy="23" r="23" fill="#F9F9F9"/>
<path d="M32.1267 31.7846V29.6824C32.1267 28.5672 31.6674 27.4978 30.8496 26.7093C30.0319 25.9208 28.9229 25.4778 27.7664 25.4778H19.0458C17.8894 25.4778 16.7804 25.9208 15.9626 26.7093C15.1449 27.4978 14.6855 28.5672 14.6855 29.6824V31.7846" stroke="#292D32" stroke-width="1.5" stroke-linecap="round" stroke-linejoin="round"/>
<path d="M23.406 21.2732C25.8141 21.2732 27.7663 19.3907 27.7663 17.0686C27.7663 14.7465 25.8141 12.864 23.406 12.864C20.9978 12.864 19.0457 14.7465 19.0457 17.0686C19.0457 19.3907 20.9978 21.2732 23.406 21.2732Z" stroke="#292D32" stroke-width="1.5" stroke-linecap="round" stroke-linejoin="round"/>
</svg>

