<svg width="65" height="27" viewBox="0 0 65 27" fill="none" xmlns="http://www.w3.org/2000/svg">
<path d="M45.3175 23.1944L44.9194 22.9339L44.466 23.0785C44.1787 23.1702 43.7938 23.2898 43.3568 23.4256C42.7239 23.6222 41.9816 23.8528 41.2679 24.0819C41.3542 23.8085 41.4426 23.5278 41.5297 23.2487C41.8325 22.2786 42.1443 21.2532 42.2229 20.7923L42.2925 20.3845L42.0535 20.0467C40.6607 18.0781 39.8424 15.6755 39.8424 13.0788C39.8424 6.40786 45.2503 1 51.9212 1C58.5921 1 64 6.40786 64 13.0788C64 19.7497 58.5921 25.1576 51.9212 25.1576C49.4822 25.1576 47.2149 24.4358 45.3175 23.1944Z" stroke="#292D32" stroke-width="2"/>
<path d="M58.4603 17.2184C58.4603 17.4538 58.4079 17.6958 58.2965 17.9312C58.1852 18.1666 58.0411 18.3889 57.8512 18.5982C57.5303 18.9513 57.1766 19.2064 56.7771 19.3699C56.3842 19.5333 55.9585 19.6184 55.5 19.6184C54.832 19.6184 54.1181 19.4614 53.365 19.141C52.6118 18.8205 51.8587 18.3889 51.112 17.8462C50.3589 17.2969 49.645 16.6887 48.9639 16.0151C48.2893 15.335 47.6802 14.6223 47.1367 13.8768C46.5996 13.1313 46.1674 12.3858 45.853 11.6468C45.5387 10.9013 45.3815 10.1885 45.3815 9.50844C45.3815 9.06376 45.4601 8.6387 45.6172 8.24633C45.7744 7.84743 46.0233 7.48122 46.3704 7.15425C46.7896 6.74227 47.248 6.53955 47.7326 6.53955C47.916 6.53955 48.0994 6.57879 48.2631 6.65726C48.4334 6.73573 48.584 6.85344 48.7019 7.02347L50.2213 9.16185C50.3392 9.32534 50.4244 9.47574 50.4833 9.61961C50.5423 9.75694 50.575 9.89426 50.575 10.0185C50.575 10.1755 50.5292 10.3324 50.4375 10.4828C50.3523 10.6332 50.2279 10.7902 50.0707 10.9471L49.573 11.4637C49.5009 11.5357 49.4682 11.6207 49.4682 11.7253C49.4682 11.7776 49.4747 11.8234 49.4878 11.8757C49.5075 11.928 49.5271 11.9673 49.5402 12.0065C49.6581 12.2223 49.8611 12.5035 50.1493 12.8435C50.444 13.1836 50.7584 13.5302 51.0989 13.8768C51.4526 14.2233 51.7932 14.5438 52.1403 14.8381C52.4808 15.1258 52.7624 15.322 52.9851 15.4397C53.0179 15.4528 53.0572 15.4724 53.103 15.492C53.1554 15.5116 53.2078 15.5181 53.2667 15.5181C53.3781 15.5181 53.4632 15.4789 53.5353 15.407L54.033 14.9165C54.1967 14.753 54.3539 14.6288 54.5045 14.5503C54.6552 14.4588 54.8058 14.413 54.9695 14.413C55.094 14.413 55.225 14.4391 55.369 14.498C55.5131 14.5569 55.6638 14.6419 55.8275 14.753L57.9953 16.2898C58.1656 16.4075 58.2834 16.5448 58.3555 16.7083C58.421 16.8718 58.4603 17.0353 58.4603 17.2184Z" fill="#292D32"/>
</svg>
